<svg xmlns="http://www.w3.org/2000/svg" fill="none" viewBox="0 0 269 38">
  <defs/>
  <path fill="#121920" d="M20.6602 21.5566v-.1054c0-1.1016-.9434-3.8555-2.8301-8.2617-.3281-.7618-.4981-1.1426-.5098-1.1426l-.5098 1.1777c-1.9453 4.5352-2.9179 7.2891-2.9179 8.2617 0 .1641.0996.252.2988.2637.2109.0117.3691.0176.4746.0176l1.3711.0351h1.2481l.123-.0175c2.168 0 3.252-.0762 3.252-.2286zM6 30.9258c0-.293.33398-.6328 1.00195-1.0196.66797-.3867 1.16016-.8789 1.47657-1.4765.3164-.5977.76171-1.6758 1.33593-3.2344.57425-1.5703 1.35355-3.5449 2.33785-5.9238.9961-2.3789 1.7813-4.5117 2.3555-6.3985.586-1.8984.9844-3.09956 1.1953-3.60347.4805-1.14844 1.1602-1.72265 2.0391-1.72265h.4922c.2226 0 .498.12304.8261.36914.668.5039 1.3653 1.58203 2.0918 3.23438.2461.5625.6153 1.5293 1.1075 2.9004.4922 1.3594 1.4765 4.0254 2.9531 7.998 1.4766 3.9727 2.3027 6.1348 2.4785 6.4864.293.6093.791 1.1015 1.4941 1.4765.7032.3633 1.0547.6563 1.0547.8789 0 .4922-.2929.7969-.8789.9141-.3984.082-1.4062.123-3.0234.123l-1.0195.0176c-2.168 0-3.252-.293-3.252-.8789 0-.1055.1348-.3574.4043-.7559.2813-.3984.4219-.9023.4219-1.5117 0-.6093-.2227-1.4824-.668-2.6191-.4336-1.1367-.8027-1.8399-1.1074-2.1094-.293-.2695-1.5645-.4043-3.8145-.4043s-3.5625.1231-3.9375.3692c-.375.246-.7793.9082-1.2129 1.9863-.4335 1.0781-.6503 1.957-.6503 2.6367 0 .668.205 1.2598.6152 1.7754.4219.5156.6328.7852.6328.8086 0 .4219-.7207.6328-2.1621.6328-1.4297 0-2.5547-.0527-3.37501-.1582C6.4043 31.5996 6 31.3359 6 30.9258zM42.6518 19.9395c0-.9493-.3047-1.7051-.9141-2.2676-.6093-.5742-1.4179-.8614-2.4257-.8614h-.334c-.5274 0-1.0899.1583-1.6875.4747-.5977.3164-1.0899.7734-1.4766 1.371-.7734 1.1954-1.1602 2.6778-1.1602 4.4473v1.0371c0 1.7578.3926 3.211 1.1778 4.3594.7969 1.1484 1.7637 1.7227 2.9004 1.7227h.5097c.9961 0 1.8106-.3399 2.4434-1.0196.6328-.6797.9492-1.5469.9492-2.6015l.0352-.3692v-.3691l.0351-.9141v-1.6875l.0176-.5625v-.5449l-.0176-.1934v-.9316l-.0175-.1758v-.3691c-.0235-.2344-.0352-.416-.0352-.5449zm.0879-4.9747c.1055-.2578.1582-1.0312.1582-2.3203 0-1.289-.0996-2.2324-.2988-2.83005-.1993-.60937-.5508-1.10742-1.0547-1.49414-.4922-.39843-.7383-.69726-.7383-.89648 0-.19922.1348-.375.4043-.52735.7266-.42187 1.9101-.63281 3.5508-.63281h.4218c.8204 0 1.2891.43945 1.4063 1.31836.0352.26953.0527 3.62107.0527 10.05467 0 6.4219.0469 9.9492.1407 10.5821.0937.621.3164 1.1074.6679 1.4589.0703.0703.293.252.668.545.3867.2812.5801.5332.5801.7558 0 .211-.1641.4043-.4922.5801-.668.3633-1.7578.5449-3.2695.5449-.5274 0-.9493-.1582-1.2657-.4746-.6211-.6211-.9609-.9316-1.0195-.9316-.0469 0-.3106.1347-.791.4043-.4805.2695-1.0606.5449-1.7403.8261-.6679.2696-1.5.4043-2.496.4043-.9961 0-1.9161-.2168-2.7598-.6504-1.5586-.7968-2.6543-2.1152-3.2871-3.955-.375-1.1016-.5625-2.3086-.5625-3.6211 0-2.6485.7558-4.8047 2.2676-6.4688 1.5234-1.664 3.621-2.4961 6.2929-2.4961l2.3028.211c.4687 0 .7558-.1289.8613-.3868zM59.247 31.2949c0 .4571-1.0606.6856-3.1817.6856H54.202l-.7383-.0352-1.1074-.0176c-1.2422 0-1.8633-.2226-1.8633-.6679 0-.3164.2754-.6504.8262-1.002.5625-.3633.9375-.8262 1.125-1.3887.1992-.5742.2988-2.2558.2988-5.0449 0-2.789-.0937-4.4824-.2812-5.0801-.1758-.5976-.457-1.0253-.8438-1.2832-.6914-.457-1.0371-.791-1.0371-1.0019 0-.211.1231-.3985.3692-.5625.7265-.4922 1.957-.7383 3.6914-.7383h.334c.6679 0 1.1425.3398 1.4238 1.0195.2812.668.5098 1.002.6855 1.002.1758 0 .4747-.1641.8965-.4922.4336-.3281.9492-.6563 1.5469-.9844.6094-.3281 1.2832-.4922 2.0215-.4922.7383 0 1.3008.1934 1.6875.5801.3984.375.5976.8613.5976 1.459-.0117.6094-.1699 1.0664-.4746 1.3711-.3047.3047-.6328.457-.9843.457-.3516 0-.8145-.1406-1.3887-.4219-.5742-.2929-1.0547-.4394-1.4414-.4394-.3867 0-.8086.1641-1.2656.4922-.4571.3164-.8497.8906-1.1778 1.7226-.3164.8204-.4746 2.2325-.4746 4.2364 0 1.9922.1406 3.2812.4219 3.8672.2812.5742.7148 1.1015 1.3008 1.582.5976.4805.8965.873.8965 1.1777zM71.2191 9.41016c0 .51562-.2227.99604-.668 1.44144-.4336.4336-.8672.6504-1.3008.6504-.0937.0234-.1699.0351-.2285.0351l-.3867.0352c-.586 0-1.1133-.1934-1.5821-.5801-.457-.3867-.6855-.8848-.6855-1.49415v-.31641c0-.60937.2402-1.11914.7207-1.5293.4922-.42187 1.0547-.63281 1.6875-.63281h.0879l.5977.07031c.3632 0 .7382.19922 1.125.59766.3984.38672.5976.7793.5976 1.17773l.0352.15821v.38672zM65.6292 17.25c-.6094-.293-.914-.5684-.914-.8262 0-.2578.123-.4629.3691-.6152.8555-.5156 2.209-.7734 4.0605-.7734h.5098c.6328 0 .9902.2929 1.0723.8789.0469.3164.0703 2.4492.0703 6.3984 0 3.9375.082 6.1992.2461 6.7852.164.5742.5566 1.0195 1.1777 1.3359.6211.3047.9317.6152.9317.9316 0 .4453-1.4532.668-4.3594.668l-.5274.0176h-2.1445c-.8555 0-1.2832-.211-1.2832-.6328 0-.3516.2578-.6914.7734-1.0196.5274-.3281.8907-.6914 1.0899-1.0898.2226-.4336.334-1.4473.334-3.041l.0175-.5625v-.5449l.0176-.8262v-.5449l.0176-.545c0-2.7773-.0937-4.3945-.2812-4.8515-.1758-.4688-.5684-.8496-1.1778-1.1426zM85.6697 20.5547v-.5449c0-.8672-.3106-1.6465-.9317-2.3379-.621-.7031-1.3828-1.0547-2.2851-1.0547h-.334c-.1641.0234-.2754.0351-.334.0351-.8203 0-1.5996.4688-2.3379 1.4063-.7265.9375-1.0898 1.9394-1.0898 3.0059v.2285c0 .375.2226.5625.668.5625.1757.0351.2695.0527.2812.0527l.4043.0176h.1055l.123-.0176 3.3926-.1934.6328-.0703c1.1367 0 1.7051-.3633 1.7051-1.0898zm-7.3125 4.6582c0 1.3359.5039 2.4551 1.5117 3.3574 1.0078.9024 2.2852 1.3535 3.832 1.3535.6211 0 1.1836-.0879 1.6875-.2636.5157-.1875 1.0723-.4102 1.67-.668.6093-.2578.9902-.3867 1.1425-.3867.4688 0 .7032.2519.7032.7558 0 .6797-.8672 1.4063-2.6016 2.1797-1.125.5039-2.332.7559-3.6211.7559h-.3867c-2.2031 0-4.0313-.668-5.4844-2.0039-.7851-.7266-1.3945-1.6524-1.8281-2.7774-.4336-1.1367-.6504-2.3554-.6504-3.6562l.0176-.4043v-.4043c0-1.125.2578-2.2324.7734-3.3223.5274-1.0898 1.1543-1.9863 1.8809-2.6894 1.5351-1.4766 3.3574-2.2207 5.4668-2.2325 3.1875 0 5.3086 1.2422 6.3632 3.7266.3282.7852.4922 1.5059.4922 2.1621v.3516c0 .8086-.3339 1.3535-1.0019 1.6347-.668.2696-2.2442.4922-4.7285.668-2.4844.1758-3.8321.293-4.043.3516-.7969.1992-1.1953.7031-1.1953 1.5117zM93.5637 31.8398c-1.6524 0-2.4785-.2343-2.4785-.7031 0-.3867.2168-.7031.6503-.9492.7852-.4453 1.2422-.8437 1.3711-1.1953.1289-.3633.1934-2.0567.1934-5.0801 0-3.0351-.0937-4.8105-.2812-5.3262-.1758-.5273-.504-.9609-.9844-1.3007-.4805-.3399-.7207-.6153-.7207-.8262 0-.211.1582-.4102.4746-.5977.7383-.4336 1.9101-.6504 3.5156-.6504.4805 0 .8555.1641 1.125.4922.0938.1172.2227.375.3867.7735.1758.3867.293.58.3516.58.2226-.0117.5683-.1699 1.0371-.4746 1.6172-1.0898 3.0817-1.6347 4.3947-1.6347H103.196c.95 0 1.805.2343 2.567.7031.762.4687 1.348 1.1719 1.758 2.1094.422.9375.633 2.9824.633 6.1347 0 3.1407.064 4.8985.193 5.2735.141.3632.521.7031 1.142 1.0195.633.3164.95.627.95.9316 0 .5274-1.664.7911-4.993.7911h-.527c-1.055 0-1.582-.252-1.582-.7559 0-.1055.129-.3574.387-.7559.258-.4101.433-.8613.527-1.3535.094-.4922.141-2.1094.141-4.8515 0-2.7539-.17-4.5235-.51-5.3086-.469-1.0782-1.248-1.6172-2.338-1.6172-.797 0-1.5702.1875-2.3202.5625-.7383.3633-1.2773.8847-1.6172 1.5644-.3281.668-.4921 2.2793-.4921 4.834 0 2.543.0703 4.084.2109 4.6231.1406.5273.3105.955.5098 1.2832l.6503 1.0547c0 .457-.9199.6855-2.7597.6855l-1.0723-.0352h-1.0898zM114.026 31.8398c-1.652 0-2.478-.2343-2.478-.7031 0-.3867.216-.7031.65-.9492.785-.4453 1.242-.8437 1.371-1.1953.129-.3633.193-2.0567.193-5.0801 0-3.0351-.093-4.8105-.281-5.3262-.176-.5273-.504-.9609-.984-1.3007-.481-.3399-.721-.6153-.721-.8262 0-.211.158-.4102.475-.5977.738-.4336 1.91-.6504 3.515-.6504.481 0 .856.1641 1.125.4922.094.1172.223.375.387.7735.176.3867.293.58.352.58.222-.0117.568-.1699 1.037-.4746 1.617-1.0898 3.082-1.6347 4.394-1.6347h.598c.949 0 1.805.2343 2.566.7031.762.4687 1.348 1.1719 1.758 2.1094.422.9375.633 2.9824.633 6.1347 0 3.1407.064 4.8985.193 5.2735.141.3632.522.7031 1.143 1.0195.633.3164.949.627.949.9316 0 .5274-1.664.7911-4.992.7911h-.528c-1.054 0-1.582-.252-1.582-.7559 0-.1055.129-.3574.387-.7559.258-.4101.434-.8613.528-1.3535.093-.4922.14-2.1094.14-4.8515 0-2.7539-.17-4.5235-.51-5.3086-.468-1.0782-1.248-1.6172-2.338-1.6172-.796 0-1.57.1875-2.32.5625-.738.3633-1.277.8847-1.617 1.5644-.328.668-.492 2.2793-.492 4.834 0 2.543.07 4.084.211 4.6231.14.5273.31.955.51 1.2832l.65 1.0547c0 .457-.92.6855-2.76.6855l-1.072-.0352h-1.09zM143.119 20.5547v-.5449c0-.8672-.31-1.6465-.931-2.3379-.622-.7031-1.383-1.0547-2.286-1.0547h-.334c-.164.0234-.275.0351-.334.0351-.82 0-1.599.4688-2.337 1.4063-.727.9375-1.09 1.9394-1.09 3.0059v.2285c0 .375.222.5625.668.5625.175.0351.269.0527.281.0527l.404.0176h.106l.123-.0176 3.392-.1934.633-.0703c1.137 0 1.705-.3633 1.705-1.0898zm-7.312 4.6582c0 1.3359.504 2.4551 1.511 3.3574 1.008.9024 2.286 1.3535 3.832 1.3535.622 0 1.184-.0879 1.688-.2636.516-.1875 1.072-.4102 1.67-.668.609-.2578.99-.3867 1.142-.3867.469 0 .704.2519.704.7558 0 .6797-.868 1.4063-2.602 2.1797-1.125.5039-2.332.7559-3.621.7559h-.387c-2.203 0-4.031-.668-5.484-2.0039-.785-.7266-1.395-1.6524-1.828-2.7774-.434-1.1367-.651-2.3554-.651-3.6562l.018-.4043v-.4043c0-1.125.258-2.2324.773-3.3223.528-1.0898 1.155-1.9863 1.881-2.6894 1.535-1.4766 3.358-2.2207 5.467-2.2325 3.187 0 5.309 1.2422 6.363 3.7266.328.7852.492 1.5059.492 2.1621v.3516c0 .8086-.334 1.3535-1.001 1.6347-.668.2696-2.245.4922-4.729.668s-3.832.293-4.043.3516c-.797.1992-1.195.7031-1.195 1.5117zM156.675 8.33789c.433-.41016 1.119-.61523 2.056-.61523.95 0 1.705.10546 2.268.3164 1.055.375 1.705 1.40039 1.951 3.07614.117.8555.481 2.5899 1.09 5.2032.621 2.6132 1.143 4.5351 1.564 5.7656.434 1.2187.944 1.8281 1.53 1.8281.586 0 1.236-1.1953 1.951-3.5859.726-2.3907 1.09-4.5352 1.09-6.4336 0-.6094-.065-1.1836-.194-1.7227l-.211-.7207-.175-.6855c0-.8555.328-1.50589.984-1.9512.668-.45703 1.459-.68555 2.373-.68555.926 0 1.74.27539 2.443.82617.715.53907 1.073 1.15428 1.073 1.84568l-.088.6856-.123.6855c0 1.7813.931 5.1914 2.795 10.2305.351.9609.744 1.4414 1.177 1.4414.446 0 .786-.1875 1.02-.5625.234-.3867.738-1.9688 1.512-4.7461.785-2.7773 1.236-5.0039 1.353-6.6797.129-1.6758.211-2.57225.246-2.68944.293-.94922 1.213-1.42383 2.76-1.42383.774 0 1.318.14063 1.635.42188.316.26953.474.60351.474 1.00195 0 .38672-.357 1.14254-1.072 2.26754-.715 1.125-1.26 2.2383-1.635 3.3399l-.949 2.918c-.187.5625-.392 1.2187-.615 1.9687l-.598 1.9512c-1.359 4.2656-2.25 6.7851-2.672 7.5586-.679 1.2304-1.418 1.8457-2.214 1.8457-.903 0-1.694-.7793-2.373-2.3379-.34-.7852-1.008-2.7598-2.004-5.9238-.985-3.1758-1.588-5.045-1.811-5.6075l-.334-.7207c-.269 0-1.008 1.8047-2.215 5.4141-1.195 3.5976-2.021 5.8945-2.478 6.8906-.715 1.5586-1.506 2.3379-2.373 2.3379-.867 0-1.617-.6328-2.25-1.8984-.282-.5742-1.049-2.918-2.303-7.0313-1.242-4.1133-2.045-6.6621-2.408-7.6465-.352-.9843-.873-2.0625-1.565-3.2343-.679-1.1719-1.019-1.89848-1.019-2.17973 0-.28125.111-.52734.334-.73828zM197.229 9.41016c0 .51562-.223.99604-.668 1.44144-.434.4336-.867.6504-1.301.6504-.094.0234-.17.0351-.228.0351l-.387.0352c-.586 0-1.113-.1934-1.582-.5801-.457-.3867-.686-.8848-.686-1.49415v-.31641c0-.60937.241-1.11914.721-1.5293.492-.42187 1.055-.63281 1.688-.63281h.087l.598.07031c.363 0 .738.19922 1.125.59766.399.38672.598.7793.598 1.17773l.035.15821v.38672zm-5.59 7.83984c-.609-.293-.914-.5684-.914-.8262 0-.2578.123-.4629.369-.6152.856-.5156 2.209-.7734 4.061-.7734h.509c.633 0 .991.2929 1.073.8789.047.3164.07 2.4492.07 6.3984 0 3.9375.082 6.1992.246 6.7852.164.5742.557 1.0195 1.178 1.3359.621.3047.932.6152.932.9316 0 .4453-1.454.668-4.36.668l-.527.0176h-2.145c-.855 0-1.283-.211-1.283-.6328 0-.3516.258-.6914.773-1.0196.528-.3281.891-.6914 1.09-1.0898.223-.4336.334-1.4473.334-3.041l.018-.5625v-.5449l.017-.8262v-.5449l.018-.545c0-2.7773-.094-4.3945-.281-4.8515-.176-.4688-.569-.8496-1.178-1.1426zM200.517 31.3652c0-.2461.264-.5625.791-.9492.54-.3867.903-.9902 1.09-1.8105.188-.8321.282-3.9727.282-9.4219 0-5.4492-.065-8.5371-.194-9.26368-.117-.72656-.416-1.24804-.896-1.56445-.774-.50391-1.16-.81445-1.16-.93164v-.21094c0-.19922.169-.375.509-.52734C201.994 6.22852 203.4 6 205.158 6h.352c.597 0 .943.4043 1.037 1.21289.011.10547.017.99023.017 2.6543v3.77931l-.017.7207v1.1074l-.018.7207v5.5723c0 3.4687.053 5.6191.158 6.4512.118.8203.381 1.4179.791 1.7929.047.0352.293.1875.739.4571.445.2695.668.5449.668.8261 0 .4102-.727.6153-2.18.6153l-.721.0351h-.72l-2.883.0527h-.369c-.997 0-1.495-.2109-1.495-.6328zM221.665 24.0879c.926.8789 1.389 1.9922 1.389 3.3398 0 1.336-.551 2.4844-1.652 3.4453-1.102.9493-2.625 1.4239-4.571 1.4239h-.474c-2.215 0-3.903-.2754-5.063-.8262-.644-.3047-.967-.9844-.967-2.0391v-.4394c0-1.3477.252-2.0215.756-2.0215.422 0 .92.3984 1.494 1.1953.575.7852 1.055 1.3125 1.442 1.582.75.5157 1.629.7735 2.637.7735 1.019 0 1.769-.211 2.25-.6328.48-.4336.72-1.002.72-1.7051 0-.7031-.41-1.3535-1.23-1.9512-.434-.3164-1.447-.8144-3.041-1.4941-1.582-.6797-2.766-1.3887-3.551-2.127-.785-.75-1.178-1.8047-1.178-3.164 0-1.3594.569-2.461 1.705-3.3047 1.137-.8555 2.537-1.2832 4.202-1.2832h.474c2.18 0 3.709.2578 4.588.7734.457.2695.686 1.0195.686 2.25s-.293 1.8457-.879 1.8457c-.328 0-.78-.3633-1.354-1.0898-.562-.7383-1.078-1.2598-1.547-1.5645-.468-.3164-1.119-.4746-1.951-.4746-.82 0-1.471.1875-1.951.5625-.481.375-.721.9199-.721 1.6348 0 .7031.44 1.3359 1.319 1.8984.222.1524 1.195.6035 2.918 1.3535 1.722.75 2.906 1.4297 3.55 2.0391zM228.417 22.9277v.6504c0 1.9922.386 3.6446 1.16 4.9571.363.621.826 1.1132 1.389 1.4765.562.3633 1.13.5449 1.705.5449h.351c1.067 0 1.987-.5156 2.76-1.5468.785-1.043 1.178-2.5196 1.178-4.4297V23.332c0-1.8867-.393-3.4863-1.178-4.7988-.773-1.3242-1.758-1.9863-2.953-1.9863h-.545c-1.078 0-1.992.5801-2.742 1.7402-.75 1.1602-1.125 2.707-1.125 4.6406zm12.779.0703v.879c0 .9257-.187 1.9394-.562 3.041-.786 2.2968-2.35 3.9023-4.694 4.8164-1.019.3984-2.004.5976-2.953.5976h-.58c-2.238 0-4.107-.75-5.607-2.25-.68-.6797-1.231-1.5761-1.653-2.6894-.422-1.1133-.633-2.2969-.633-3.5508v-.2988c0-1.1368.2-2.2852.598-3.4453.773-2.2618 2.291-3.8321 4.553-4.711 1.019-.3984 1.998-.5976 2.935-.5976h.879c1.043 0 2.069.2343 3.076.7031 1.911.8906 3.241 2.3086 3.991 4.2539.433 1.1484.65 2.2324.65 3.2519zM245.346 31.8398c-1.652 0-2.479-.2343-2.479-.7031 0-.3867.217-.7031.651-.9492.785-.4453 1.242-.8437 1.371-1.1953.129-.3633.193-2.0567.193-5.0801 0-3.0351-.094-4.8105-.281-5.3262-.176-.5273-.504-.9609-.984-1.3007-.481-.3399-.721-.6153-.721-.8262 0-.211.158-.4102.474-.5977.739-.4336 1.911-.6504 3.516-.6504.481 0 .856.1641 1.125.4922.094.1172.223.375.387.7735.176.3867.293.58.351.58.223-.0117.569-.1699 1.037-.4746 1.618-1.0898 3.083-1.6347 4.395-1.6347h.598c.949 0 1.804.2343 2.566.7031.762.4687 1.348 1.1719 1.758 2.1094.422.9375.633 2.9824.633 6.1347 0 3.1407.064 4.8985.193 5.2735.141.3632.522.7031 1.143 1.0195.632.3164.949.627.949.9316 0 .5274-1.664.7911-4.992.7911h-.528c-1.054 0-1.582-.252-1.582-.7559 0-.1055.129-.3574.387-.7559.258-.4101.434-.8613.527-1.3535.094-.4922.141-2.1094.141-4.8515 0-2.7539-.17-4.5235-.51-5.3086-.469-1.0782-1.248-1.6172-2.338-1.6172-.797 0-1.57.1875-2.32.5625-.738.3633-1.277.8847-1.617 1.5644-.328.668-.492 2.2793-.492 4.834 0 2.543.07 4.084.211 4.6231.14.5273.31.955.509 1.2832l.651 1.0547c0 .457-.92.6855-2.76.6855l-1.072-.0352h-1.09z"/>
</svg>
