<svg width="157" height="44" viewBox="0 0 157 44" fill="none" xmlns="http://www.w3.org/2000/svg">
<path d="M15.0645 23.5762V23.4707C15.0645 22.3691 14.1211 19.6152 12.2344 15.209C11.9062 14.4473 11.7363 14.0664 11.7246 14.0664L11.2148 15.2441C9.26953 19.7793 8.29688 22.5332 8.29688 23.5059C8.29688 23.6699 8.39648 23.7578 8.5957 23.7695C8.80664 23.7812 8.96484 23.7871 9.07031 23.7871L10.4414 23.8223H11.6895L11.8125 23.8047C13.9805 23.8047 15.0645 23.7285 15.0645 23.5762ZM0.404297 32.9453C0.404297 32.6523 0.738281 32.3125 1.40625 31.9258C2.07422 31.5391 2.56641 31.0469 2.88281 30.4492C3.19922 29.8516 3.64453 28.7734 4.21875 27.2148C4.79297 25.6445 5.57227 23.6699 6.55664 21.291C7.55273 18.9121 8.33789 16.7793 8.91211 14.8926C9.49805 12.9941 9.89648 11.793 10.1074 11.2891C10.5879 10.1406 11.2676 9.56641 12.1465 9.56641H12.6387C12.8613 9.56641 13.1367 9.68945 13.4648 9.93555C14.1328 10.4395 14.8301 11.5176 15.5566 13.1699C15.8027 13.7324 16.1719 14.6992 16.6641 16.0703C17.1562 17.4297 18.1406 20.0957 19.6172 24.0684C21.0938 28.041 21.9199 30.2031 22.0957 30.5547C22.3887 31.1641 22.8867 31.6562 23.5898 32.0312C24.293 32.3945 24.6445 32.6875 24.6445 32.9102C24.6445 33.4023 24.3516 33.707 23.7656 33.8242C23.3672 33.9062 22.3594 33.9473 20.7422 33.9473L19.7227 33.9648C17.5547 33.9648 16.4707 33.6719 16.4707 33.0859C16.4707 32.9805 16.6055 32.7285 16.875 32.3301C17.1562 31.9316 17.2969 31.4277 17.2969 30.8184C17.2969 30.209 17.0742 29.3359 16.6289 28.1992C16.1953 27.0625 15.8262 26.3594 15.5215 26.0898C15.2285 25.8203 13.957 25.6855 11.707 25.6855C9.45703 25.6855 8.14453 25.8086 7.76953 26.0547C7.39453 26.3008 6.99023 26.9629 6.55664 28.041C6.12305 29.1191 5.90625 29.998 5.90625 30.6777C5.90625 31.3457 6.11133 31.9375 6.52148 32.4531C6.94336 32.9688 7.1543 33.2383 7.1543 33.2617C7.1543 33.6836 6.43359 33.8945 4.99219 33.8945C3.5625 33.8945 2.4375 33.8418 1.61719 33.7363C0.808594 33.6191 0.404297 33.3555 0.404297 32.9453Z" fill="#222232"/>
<path d="M28.0209 33.8594C26.3686 33.8594 25.5424 33.625 25.5424 33.1562C25.5424 32.7695 25.7592 32.4531 26.1928 32.207C26.978 31.7617 27.435 31.3633 27.5639 31.0117C27.6928 30.6484 27.7573 28.9551 27.7573 25.9316C27.7573 22.8965 27.6635 21.1211 27.476 20.6055C27.3002 20.0781 26.9721 19.6445 26.4916 19.3047C26.0112 18.9648 25.7709 18.6895 25.7709 18.4785C25.7709 18.2676 25.9291 18.0684 26.2455 17.8809C26.9838 17.4473 28.1557 17.2305 29.7612 17.2305C30.2416 17.2305 30.6166 17.3945 30.8862 17.7227C30.9799 17.8398 31.1088 18.0977 31.2729 18.4961C31.4487 18.8828 31.5659 19.0762 31.6245 19.0762C31.8471 19.0645 32.1928 18.9062 32.6616 18.6016C34.2787 17.5117 35.7436 16.9668 37.0561 16.9668H37.0912H37.6537C38.603 16.9668 39.4584 17.2012 40.2202 17.6699C40.9819 18.1387 41.5678 18.8418 41.978 19.7793C42.3998 20.7168 42.6108 22.7617 42.6108 25.9141C42.6108 29.0547 42.6752 30.8125 42.8041 31.1875C42.9448 31.5508 43.3256 31.8906 43.9467 32.207C44.5795 32.5234 44.8959 32.834 44.8959 33.1387C44.8959 33.666 43.2319 33.9297 39.9037 33.9297H39.3764C38.3217 33.9297 37.7944 33.6777 37.7944 33.1738C37.7944 33.0684 37.9233 32.8164 38.1811 32.418C38.4389 32.0078 38.6147 31.5566 38.7084 31.0645C38.8022 30.5723 38.8491 28.9551 38.8491 26.2129C38.8491 23.459 38.6791 21.6895 38.3393 20.9043C37.8705 19.8262 37.0912 19.2871 36.0014 19.2871C35.2045 19.2871 34.4311 19.4746 33.6811 19.8496C32.9428 20.2129 32.4037 20.7344 32.0639 21.4141C31.7358 22.082 31.5717 23.6934 31.5717 26.248C31.5717 28.791 31.642 30.332 31.7827 30.8711C31.9233 31.3984 32.0932 31.8262 32.2924 32.1543L32.9428 33.209C32.9428 33.666 32.0229 33.8945 30.183 33.8945L29.1108 33.8594H28.0209Z" fill="#222232"/>
<path d="M57.6591 21.959C57.6591 21.0098 57.3544 20.2539 56.745 19.6914C56.1356 19.1172 55.327 18.8301 54.3192 18.8301H53.9852C53.4579 18.8301 52.8954 18.9883 52.2977 19.3047C51.7001 19.6211 51.2079 20.0781 50.8212 20.6758C50.0477 21.8711 49.661 23.3535 49.661 25.123V26.1602C49.661 27.918 50.0536 29.3711 50.8387 30.5195C51.6356 31.668 52.6024 32.2422 53.7391 32.2422H54.2489C55.245 32.2422 56.0595 31.9023 56.6923 31.2227C57.3251 30.543 57.6415 29.6758 57.6415 28.6211L57.6766 28.252V27.8828L57.7118 26.9688C57.7118 26.4062 57.7118 25.8438 57.7118 25.2812L57.7294 24.7188V24.1738L57.7118 23.9805V23.0488L57.6942 22.873V22.5039C57.6708 22.2695 57.6591 22.0879 57.6591 21.959ZM57.747 16.9844C57.8524 16.7266 57.9052 15.9531 57.9052 14.6641C57.9052 13.375 57.8055 12.4316 57.6063 11.834C57.4071 11.2246 57.0555 10.7266 56.5516 10.3398C56.0595 9.94141 55.8134 9.64258 55.8134 9.44336C55.8134 9.24414 55.9481 9.06836 56.2177 8.91602C56.9442 8.49414 58.1278 8.2832 59.7684 8.2832H60.1903C61.0106 8.2832 61.4794 8.72266 61.5966 9.60156C61.6317 9.87109 61.6493 13.2227 61.6493 19.6562C61.6493 26.0781 61.6962 29.6055 61.7899 30.2383C61.8837 30.8594 62.1063 31.3457 62.4579 31.6973C62.5282 31.7676 62.7509 31.9492 63.1259 32.2422C63.5126 32.5234 63.7059 32.7754 63.7059 32.998C63.7059 33.209 63.5419 33.4023 63.2137 33.5781C62.5458 33.9414 61.4559 34.123 59.9442 34.123C59.4169 34.123 58.995 33.9648 58.6786 33.6484C58.0575 33.0273 57.7177 32.7168 57.6591 32.7168C57.6122 32.7168 57.3485 32.8516 56.868 33.1211C56.3876 33.3906 55.8075 33.666 55.1278 33.9473C54.4598 34.2168 53.6278 34.3516 52.6317 34.3516C51.6356 34.3516 50.7157 34.1348 49.872 33.7012C48.3134 32.9043 47.2177 31.5859 46.5848 29.7461C46.2098 28.6445 46.0223 27.4375 46.0223 26.125C46.0223 23.4766 46.7782 21.3203 48.2899 19.6562C49.8134 17.9922 51.911 17.1602 54.5829 17.1602L56.8856 17.3711C57.3544 17.3711 57.6415 17.2422 57.747 16.9844Z" fill="#222232"/>
<path d="M71.9515 11.4297C71.9515 11.9453 71.7288 12.4258 71.2835 12.8711C70.8499 13.3047 70.4163 13.5215 69.9827 13.5215C69.889 13.5449 69.8128 13.5566 69.7542 13.5566L69.3675 13.5918C68.7816 13.5918 68.2542 13.3984 67.7855 13.0117C67.3284 12.625 67.0999 12.127 67.0999 11.5176V11.2012C67.0999 10.5918 67.3402 10.082 67.8206 9.67188C68.3128 9.25 68.8753 9.03906 69.5081 9.03906H69.596L70.1937 9.10938C70.557 9.10938 70.932 9.30859 71.3187 9.70703C71.7171 10.0938 71.9163 10.4863 71.9163 10.8848L71.9515 11.043V11.4297ZM66.3616 19.2695C65.7523 18.9766 65.4476 18.7012 65.4476 18.4434C65.4476 18.1855 65.5706 17.9805 65.8167 17.8281C66.6722 17.3125 68.0257 17.0547 69.8773 17.0547H70.387C71.0198 17.0547 71.3773 17.3477 71.4593 17.9336C71.5062 18.25 71.5296 20.3828 71.5296 24.332C71.5296 28.2695 71.6116 30.5312 71.7757 31.1172C71.9398 31.6914 72.3323 32.1367 72.9534 32.4531C73.5745 32.7578 73.8851 33.0684 73.8851 33.3848C73.8851 33.8301 72.432 34.0527 69.5257 34.0527L68.9984 34.0703H66.8538C65.9984 34.0703 65.5706 33.8594 65.5706 33.4375C65.5706 33.0859 65.8284 32.7461 66.3441 32.418C66.8714 32.0898 67.2347 31.7266 67.4339 31.3281C67.6566 30.8945 67.7679 29.8809 67.7679 28.2871L67.7855 27.7246V27.1797L67.803 26.3535V25.8086L67.8206 25.2637C67.8206 22.4863 67.7269 20.8691 67.5394 20.4121C67.3636 19.9434 66.971 19.5625 66.3616 19.2695Z" fill="#222232"/>
<path d="M94.6652 34.0352H94.1379L93.6105 34.0176H90.9914C86.8313 34.0176 84.5871 33.9883 84.259 33.9297C83.6496 33.8242 83.3449 33.5664 83.3449 33.1562C83.3449 32.9805 83.6613 32.6699 84.2941 32.2246C84.9387 31.7793 85.3547 31.1406 85.5422 30.3086C85.7414 29.4648 85.841 26.3828 85.841 21.0625C85.841 15.7422 85.7707 12.8535 85.6301 12.3965C85.5012 11.9277 85.1613 11.5762 84.6105 11.3418C83.7434 10.9668 83.3098 10.5684 83.3098 10.1465C83.3098 9.72461 83.966 9.51367 85.2785 9.51367H86.3332L86.843 9.53125L88.425 9.54883C91.2609 9.54883 92.6789 9.75977 92.6789 10.1816C92.6789 10.3223 92.2629 10.7969 91.4309 11.6055C90.9621 12.0625 90.6223 12.8477 90.4113 13.9609C90.2121 15.0625 90.1125 18.0098 90.1125 22.8027C90.1125 27.5957 90.1828 30.2148 90.3234 30.6602C90.4758 31.1055 90.8215 31.416 91.3605 31.5918C91.6887 31.6973 92.3332 31.75 93.2941 31.75C95.3684 31.75 96.9211 31.4805 97.9523 30.9414C98.5383 30.6367 99.1711 30.0098 99.8508 29.0605C100.53 28.1113 101.058 27.6367 101.433 27.6367C101.82 27.6367 102.013 27.8828 102.013 28.375V28.832C102.013 31.4102 101.696 32.9863 101.064 33.5605C100.712 33.877 98.5793 34.0352 94.6652 34.0352Z" fill="#222232"/>
<path d="M113.827 22.5742V22.0293C113.827 21.1621 113.516 20.3828 112.895 19.6914C112.274 18.9883 111.512 18.6367 110.61 18.6367H110.276C110.112 18.6602 110.001 18.6719 109.942 18.6719C109.122 18.6719 108.342 19.1406 107.604 20.0781C106.878 21.0156 106.514 22.0176 106.514 23.084V23.3125C106.514 23.6875 106.737 23.875 107.182 23.875C107.358 23.9102 107.452 23.9277 107.464 23.9277L107.868 23.9453H107.973L108.096 23.9277L111.489 23.7344L112.122 23.6641C113.258 23.6641 113.827 23.3008 113.827 22.5742ZM106.514 27.2324C106.514 28.5684 107.018 29.6875 108.026 30.5898C109.034 31.4922 110.311 31.9434 111.858 31.9434C112.479 31.9434 113.042 31.8555 113.546 31.6797C114.061 31.4922 114.618 31.2695 115.215 31.0117C115.825 30.7539 116.206 30.625 116.358 30.625C116.827 30.625 117.061 30.877 117.061 31.3809C117.061 32.0605 116.194 32.7871 114.46 33.5605C113.335 34.0645 112.128 34.3164 110.839 34.3164H110.452C108.249 34.3164 106.421 33.6484 104.967 32.3125C104.182 31.5859 103.573 30.6602 103.139 29.5352C102.706 28.3984 102.489 27.1797 102.489 25.8789L102.506 25.4746V25.0703C102.506 23.9453 102.764 22.8379 103.28 21.748C103.807 20.6582 104.434 19.7617 105.161 19.0586C106.696 17.582 108.518 16.8379 110.628 16.8262C113.815 16.8262 115.936 18.0684 116.991 20.5527C117.319 21.3379 117.483 22.0586 117.483 22.7148V23.0664C117.483 23.875 117.149 24.4199 116.481 24.7012C115.813 24.9707 114.237 25.1934 111.753 25.3691C109.268 25.5449 107.921 25.6621 107.71 25.7207C106.913 25.9199 106.514 26.4238 106.514 27.2324Z" fill="#222232"/>
<path d="M125.746 11.4297C125.746 11.9453 125.524 12.4258 125.078 12.8711C124.645 13.3047 124.211 13.5215 123.777 13.5215C123.684 13.5449 123.607 13.5566 123.549 13.5566L123.162 13.5918C122.576 13.5918 122.049 13.3984 121.58 13.0117C121.123 12.625 120.895 12.127 120.895 11.5176V11.2012C120.895 10.5918 121.135 10.082 121.615 9.67188C122.107 9.25 122.67 9.03906 123.303 9.03906H123.391L123.988 9.10938C124.352 9.10938 124.727 9.30859 125.113 9.70703C125.512 10.0938 125.711 10.4863 125.711 10.8848L125.746 11.043V11.4297ZM120.156 19.2695C119.547 18.9766 119.242 18.7012 119.242 18.4434C119.242 18.1855 119.365 17.9805 119.611 17.8281C120.467 17.3125 121.82 17.0547 123.672 17.0547H124.182C124.815 17.0547 125.172 17.3477 125.254 17.9336C125.301 18.25 125.324 20.3828 125.324 24.332C125.324 28.2695 125.406 30.5312 125.57 31.1172C125.734 31.6914 126.127 32.1367 126.748 32.4531C127.369 32.7578 127.68 33.0684 127.68 33.3848C127.68 33.8301 126.227 34.0527 123.32 34.0527L122.793 34.0703H120.649C119.793 34.0703 119.365 33.8594 119.365 33.4375C119.365 33.0859 119.623 32.7461 120.139 32.418C120.666 32.0898 121.029 31.7266 121.229 31.3281C121.451 30.8945 121.563 29.8809 121.563 28.2871L121.58 27.7246V27.1797L121.598 26.3535V25.8086L121.615 25.2637C121.615 22.4863 121.522 20.8691 121.334 20.4121C121.158 19.9434 120.766 19.5625 120.156 19.2695Z" fill="#222232"/>
<path d="M136.664 31.6797L139.335 31.2754C139.64 31.2754 139.792 31.5156 139.792 31.9961C139.792 32.4648 139.341 32.9512 138.439 33.4551C137.537 33.959 136.587 34.2109 135.591 34.2109H135.24C134.455 34.2109 133.746 34.0059 133.113 33.5957C132.48 33.1855 132.017 32.6816 131.724 32.084C131.22 31.041 130.968 29.0664 130.968 26.1602C130.968 23.2422 130.863 21.4199 130.652 20.6934C130.453 19.9668 130.189 19.4688 129.861 19.1992C129.251 18.707 128.947 18.4375 128.947 18.3906C128.947 18.0859 129.105 17.8281 129.421 17.6172C130.23 17.0781 130.669 16.7734 130.74 16.7031C130.822 16.6211 131.273 15.6602 132.093 13.8203C132.503 12.9062 132.966 12.4492 133.482 12.4492C134.009 12.4492 134.361 12.6367 134.537 13.0117C134.584 13.1055 134.683 13.6152 134.835 14.541C135 15.4668 135.228 16.0645 135.521 16.334C135.814 16.5918 136.464 16.8438 137.472 17.0898C138.48 17.3242 138.984 17.6641 138.984 18.1094C138.984 18.5547 138.427 18.8887 137.314 19.1113C136.201 19.334 135.527 19.6211 135.292 19.9727C134.882 20.5703 134.677 22.2578 134.677 25.0352C134.677 27.8125 134.806 29.5645 135.064 30.291C135.392 31.2168 135.925 31.6797 136.664 31.6797Z" fill="#222232"/>
<path d="M141.007 33.2793V32.9102C141.007 32.5 142.513 30.1973 145.524 26.002C148.536 21.8066 150.042 19.5977 150.042 19.375C150.042 19.1406 149.304 19.0234 147.827 19.0234C146.351 19.0234 145.319 19.1465 144.733 19.3926C144.147 19.6387 143.614 20.1074 143.134 20.7988C142.653 21.4902 142.185 21.8359 141.727 21.8359C141.399 21.8359 141.235 21.2969 141.235 20.2188C141.235 18.1797 141.604 17.1602 142.343 17.1602H142.765L143.696 17.1953C144.341 17.2188 144.827 17.2305 145.155 17.2305L150.569 17.2832L153.522 17.2305C154.378 17.2305 154.806 17.5586 154.806 18.2148C154.806 18.6953 153.294 21.0391 150.27 25.2461C147.259 29.4531 145.753 31.6152 145.753 31.7324C145.753 32.0254 146.62 32.1719 148.354 32.1719C150.089 32.1719 151.249 32.0137 151.835 31.6973C152.421 31.3691 152.96 30.8477 153.452 30.1328C153.956 29.418 154.419 29.0605 154.841 29.0605C155.181 29.0605 155.351 29.3242 155.351 29.8516V30.3086C155.351 31.8789 155.233 32.8926 154.999 33.3496C154.765 33.8066 154.267 34.0352 153.505 34.0352H152.556L152.063 34.0176L149.128 33.9648L147.669 33.9473H143.749L142.765 33.9648C142.179 33.9648 141.856 33.959 141.798 33.9473C141.27 33.8535 141.007 33.6309 141.007 33.2793Z" fill="#222232"/>
</svg>
